<svg viewBox="0 0 100 100" xmlns="http://www.w3.org/2000/svg">
  <path fill="#e32526" d="M85.7,33.5l-35.4-20c-1.3-0.7-3.3-0.7-4.6,0l-35.4,20c-1.3,0.7-2.3,2.4-2.3,3.9v44.6c0,1.5,1,3.2,2.3,3.9l35.4,20c1.3,0.7,3.3,0.7,4.6,0l35.4-20c1.3-0.7,2.3-2.4,2.3-3.9V37.4C88,35.9,87,34.2,85.7,33.5z"/>
  <path fill="#ffffff" d="M78.6,44.9v23.2c0,0.5-0.3,1.1-0.7,1.4l-25,14.5c-0.4,0.2-1.1,0.2-1.5,0l-25-14.5c-0.4-0.2-0.7-0.9-0.7-1.4V44.9c0-0.5,0.3-1.1,0.7-1.4l25-14.5c0.4-0.2,1.1-0.2,1.5,0l25,14.5C78.3,43.8,78.6,44.4,78.6,44.9z"/>
  <path fill="#e32526" d="M47.5,74.7l-15.5-9c-0.7-0.4-1.3-1.4-1.3-2.2V45.5c0-0.8,0.6-1.1,1.3-0.7l15.5,9c0.7,0.4,1.3,1.4,1.3,2.2v17.9C48.8,74.7,48.2,75.1,47.5,74.7z M70.3,63.5l-15.5,9c-0.7,0.4-1.3,0-1.3-0.8V53.8c0-0.8,0.6-1.8,1.3-2.2l15.5-9c0.7-0.4,1.3,0,1.3,0.8v17.9C71.6,62.1,71,63.1,70.3,63.5z M50,42.5l-16-9.2c-0.7-0.4-0.7-1.1,0-1.5l16-9.2c0.7-0.4,1.8-0.4,2.5,0l16,9.2c0.7,0.4,0.7,1.1,0,1.5l-16,9.2C51.8,42.9,50.7,42.9,50,42.5z"/>
  <text x="50" y="58" fill="#ffffff" font-family="Arial, sans-serif" font-size="28" font-weight="900" text-anchor="middle" letter-spacing="-1.5">SW</text>
</svg>